<?xml version="1.0" encoding="iso-8859-1"?>
<!-- Generator: Adobe Illustrator 16.0.4, SVG Export Plug-In . SVG Version: 6.00 Build 0)  -->
<!DOCTYPE svg PUBLIC "-//W3C//DTD SVG 1.1//EN" "http://www.w3.org/Graphics/SVG/1.1/DTD/svg11.dtd">
<svg version="1.1" id="Layer_1" xmlns="http://www.w3.org/2000/svg" xmlns:xlink="http://www.w3.org/1999/xlink" x="0px" y="0px"
	 width="168px" height="24px" viewBox="0 0 168 24" style="enable-background:new 0 0 168 24;" xml:space="preserve">
<g>
	<line style="fill:none;stroke:#FFFFFF;stroke-width:2;stroke-miterlimit:10;" x1="3" y1="12" x2="21" y2="12"/>
	<polyline style="fill:none;stroke:#FFFFFF;stroke-width:2;stroke-miterlimit:10;" points="11.001,20 3.001,12 11.001,4 	"/>
</g>
<g>
	<line style="fill:none;stroke:#FFFFFF;stroke-width:2;stroke-miterlimit:10;" x1="26" y1="5" x2="46" y2="5"/>
	<line style="fill:none;stroke:#FFFFFF;stroke-width:2;stroke-miterlimit:10;" x1="26" y1="12" x2="46" y2="12"/>
	<line style="fill:none;stroke:#FFFFFF;stroke-width:2;stroke-miterlimit:10;" x1="26" y1="19" x2="46" y2="19"/>
</g>
<g>
	<g>
		<line style="fill:none;stroke:#FFFFFF;stroke-width:2;stroke-miterlimit:10;" x1="55" y1="7" x2="65" y2="17"/>
		<line style="fill:none;stroke:#FFFFFF;stroke-width:2;stroke-miterlimit:10;" x1="55" y1="17" x2="65" y2="7"/>
	</g>
	<g>
		<line style="fill:none;stroke:#909AA5;stroke-width:2;stroke-miterlimit:10;" x1="55" y1="7" x2="65" y2="17"/>
		<line style="fill:none;stroke:#909AA5;stroke-width:2;stroke-miterlimit:10;" x1="55" y1="17" x2="65" y2="7"/>
	</g>
</g>
<rect x="82.819" y="5.304" transform="matrix(0.7071 0.7071 -0.7071 0.7071 32.8353 -56.665)" style="fill:#FFFFFF;" width="3.998" height="11.999"/>
<polygon style="fill:#FFFFFF;" points="78.455,14.839 81.283,17.668 78.454,17.668 "/>
<rect x="106.819" y="5.304" transform="matrix(0.7071 0.7071 -0.7071 0.7071 39.8647 -73.6356)" style="fill:#909AA5;" width="3.998" height="11.999"/>
<polygon style="fill:#909AA5;" points="102.455,14.839 105.283,17.668 102.454,17.668 "/>
<polyline style="fill:none;stroke:#909AA5;stroke-width:2;stroke-miterlimit:10;" points="134.5,17 129.5,12 134.5,7 "/>
<polyline style="fill:none;stroke:#909AA5;stroke-width:2;stroke-miterlimit:10;" points="153.5,7 158.5,12 153.5,17 "/>
<g>
</g>
<g>
</g>
<g>
</g>
<g>
</g>
<g>
</g>
<g>
</g>
<g>
</g>
<g>
</g>
<g>
</g>
<g>
</g>
<g>
</g>
<g>
</g>
<g>
</g>
<g>
</g>
<g>
</g>
</svg>
