<?xml version="1.0" encoding="iso-8859-1"?>
<!-- Generator: Adobe Illustrator 16.0.4, SVG Export Plug-In . SVG Version: 6.00 Build 0)  -->
<!DOCTYPE svg PUBLIC "-//W3C//DTD SVG 1.1//EN" "http://www.w3.org/Graphics/SVG/1.1/DTD/svg11.dtd">
<svg version="1.1" id="Layer_1" xmlns="http://www.w3.org/2000/svg" xmlns:xlink="http://www.w3.org/1999/xlink" x="0px" y="0px"
	 width="190px" height="210px" viewBox="0 0 190 210" style="enable-background:new 0 0 190 210;" xml:space="preserve">
<path style="fill:#FFFFFF;" d="M54.758,120.342c-1.033-0.757-2.046-1.537-3.032-2.348c-0.215-0.159-0.438-0.301-0.651-0.466
	C52.275,118.518,53.505,119.451,54.758,120.342z"/>
<path style="fill:#FFFFFF;" d="M40.81,106.899c-0.639-0.858-1.264-1.727-1.856-2.609c-1.04-1.471-2.014-2.987-2.937-4.534
	C37.438,102.218,39.041,104.601,40.81,106.899z"/>
<path style="fill:#FFFFFF;" d="M138.715,20.982c3.573,3.893,6.812,7.896,9.62,12.249C145.681,28.873,142.486,24.751,138.715,20.982z
	"/>
<path style="fill:#FFFFFF;" d="M130.893,14.467c0.016,0.011,0.034,0.021,0.05,0.033c0.048,0.035,0.092,0.072,0.142,0.107
	c0.46,0.348,0.926,0.693,1.379,1.051c0.9,0.702,1.785,1.421,2.65,2.16c0.378,0.318,0.753,0.649,1.124,0.974
	c0.828,0.723,1.652,1.453,2.478,2.19c-3.985-3.987-8.36-7.35-13.001-10.09C127.509,12.024,129.228,13.218,130.893,14.467z"/>
<path style="fill:#FFFFFF;" d="M41.672,108.01c0.129,0.162,0.257,0.325,0.389,0.485C41.93,108.333,41.798,108.173,41.672,108.01z"/>
<path style="fill:#FFFFFF;" d="M135.113,17.818C120.654,5.563,101.584,0.422,82.917,3.812C65.805,6.918,50.303,16.99,40.323,31.202
	C29.855,46.108,25.885,64.804,29.731,82.64c4.057,18.815,16.937,34.803,34.429,42.814c17.215,7.884,37.318,7.5,54.282-0.849
	c15.868-7.809,28.409-21.071,34.358-37.796c4.106-11.544,5.033-24.291,2.331-36.267C152.275,37.893,144.962,26.189,135.113,17.818
	C134.242,17.079,135.491,18.139,135.113,17.818z"/>
<g>
	<g style="opacity:0.15;">
		<path d="M130.942,14.5C130.71,14.326,131.409,14.842,130.942,14.5C130.927,14.488,130.99,14.535,130.942,14.5z"/>
		<path d="M38.954,104.291c3.49,5.199,7.846,10.036,12.772,13.704C46.855,113.996,42.558,109.388,38.954,104.291z"/>
		<path d="M158.949,65.864c-0.468-8.468-2.552-16.833-6.119-24.525c-3.506-7.558-8.504-14.24-14.115-20.356
			c6.469,7.163,11.746,14.903,14.882,24.1c3.011,8.833,3.7,18.531,2.545,27.764c-2.185,17.466-11.279,33.076-25.118,43.838
			c-11.468,8.917-25.366,14.395-39.981,14.495c-14.278,0.099-27.904-4.688-39.316-13.186c14.313,11.76,33.045,17.194,51.44,15.081
			c9.45-1.084,18.692-4.505,26.727-9.57c7.837-4.941,14.144-11.77,19.155-19.524C156.329,92.717,159.69,79.233,158.949,65.864
			C158.448,56.792,159.466,75.173,158.949,65.864z"/>
		<path d="M28.251,69.451c-0.233-17.704,7.324-35.113,19.89-47.497C60.555,9.719,77.611,2.641,95.059,2.799
			c12.986,0.118,25.21,4.221,35.834,11.668C116.105,3.366,96.741-1.365,78.519,2.083C61.994,5.211,46.82,15.072,37.391,29.02
			c-15.335,22.684-14.095,53.129,1.562,75.271C32.03,93.984,28.414,81.848,28.251,69.451C28.031,52.737,28.383,79.489,28.251,69.451
			z"/>
	</g>
	<g style="opacity:0.05;">
		<path style="fill:#00FFFF;" d="M130.942,14.5C130.71,14.326,131.409,14.842,130.942,14.5
			C130.927,14.488,130.99,14.535,130.942,14.5z"/>
		<path style="fill:#00FFFF;" d="M38.954,104.291c3.49,5.199,7.846,10.036,12.772,13.704
			C46.855,113.996,42.558,109.388,38.954,104.291z"/>
		<path style="fill:#00FFFF;" d="M158.949,65.864c-0.468-8.468-2.552-16.833-6.119-24.525c-3.506-7.558-8.504-14.24-14.115-20.356
			c6.469,7.163,11.746,14.903,14.882,24.1c3.011,8.833,3.7,18.531,2.545,27.764c-2.185,17.466-11.279,33.076-25.118,43.838
			c-11.468,8.917-25.366,14.395-39.981,14.495c-14.278,0.099-27.904-4.688-39.316-13.186c14.313,11.76,33.045,17.194,51.44,15.081
			c9.45-1.084,18.692-4.505,26.727-9.57c7.837-4.941,14.144-11.77,19.155-19.524C156.329,92.717,159.69,79.233,158.949,65.864
			C158.448,56.792,159.466,75.173,158.949,65.864z"/>
		<path style="fill:#00FFFF;" d="M28.251,69.451c-0.233-17.704,7.324-35.113,19.89-47.497C60.555,9.719,77.611,2.641,95.059,2.799
			c12.986,0.118,25.21,4.221,35.834,11.668C116.105,3.366,96.741-1.365,78.519,2.083C61.994,5.211,46.82,15.072,37.391,29.02
			c-15.335,22.684-14.095,53.129,1.562,75.271C32.03,93.984,28.414,81.848,28.251,69.451C28.031,52.737,28.383,79.489,28.251,69.451
			z"/>
	</g>
</g>
<g>
	<path style="fill:#FFFFFF;" d="M87.953,203.481c-0.93,0,0.815-8.765,0.986-9.615c1.509-7.464,3.574-14.896,4.486-22.469
		c0.061-0.511,0.41-2.285-0.248-2.27c-2.178,0.053-4.356,0.223-6.526,0.409c-1.172,0.146-1.752,1.615-2.538,0.218
		c-0.444-0.792-0.715-1.674-0.891-2.561c-0.262-1.326-0.449-1.771,0.923-2.063c4.475-0.955,9.583-0.202,14.109-0.053
		c1.165,0.038,2.331,0.077,3.497,0.115c1.645,0.054,3.293,0.089,4.939,0.106c1.452,0.015,3.289-0.294,4.56,0.575
		c1.783,1.218,0.615,4.553-1.588,4.367c-0.766-0.064-1.528-0.138-2.294-0.209c-0.721-0.066-1.441-0.134-2.164-0.2
		c-0.564-0.053-2.805-0.501-2.864,0.002c-0.373,3.204-1.223,6.354-1.948,9.489c-0.934,4.024-1.811,8.072-2.541,12.139
		c-0.338,1.883-0.616,3.776-0.813,5.678c-0.066,0.634,0.031,5.033-0.394,5.245C94.136,203.675,90.674,203.481,87.953,203.481z"/>
	<path style="fill:#FFFFFF;" d="M123.658,203.967c-2.286,0-4.202-1.445-4.874-3.625c-2.397,2.337-7.521,5.594-10.593,2.403
		c-1.81-1.88-1.421-4.528-1.322-6.886c0.09-2.097,0.179-4.193,0.267-6.29c0.072-1.706,0.039-3.424-0.112-5.125
		c-0.143-1.612-0.299-2.17-1.415-3.26c-0.997-0.977,1.581-1.459,2.055-1.557c1.629-0.334,3.461-0.693,5.111-0.456
		c4.134,0.592,2.86,6.835,2.464,9.563c-0.175,1.193-2.31,10.501,0.217,10.146c1.322-0.186,3.095-1.32,3.227-2.674
		c0.193-1.986,0.521-3.959,0.777-5.938c0.227-1.735,0.449-3.487,0.482-5.238c0.019-0.99-0.027-1.988-0.162-2.969
		c-0.021-0.155-0.308-0.987-0.056-1.082c0.761-0.286,1.53-0.544,2.312-0.767c1.02-0.292,4.761-1.534,5.501-0.489
		c0.909,1.286,0.569,3.545,0.436,5.012c-0.371,4.078-1.729,8.095-1.729,12.202c0,0.457-0.049,1.968,0.702,1.968
		c0.75,0,1.46-0.332,2.067-0.749c1.832-1.26,3.398-3.384,4.305-5.396c0.166-0.367,0.769-1.608,0.419-1.937
		c-0.574-0.535-1.043-1.169-1.462-1.832c-0.89-1.413-1.883-3.393-1.575-5.124c0.284-1.144,1.199-2.557,1.899-3.452
		c0.756-0.966,3.353-1.583,4.31-0.636c1.229,1.215,1.926,2.379,1.874,4.172c-0.067,2.358-0.607,4.685-1.426,6.892
		c-1.549,4.174-4.127,8.203-7.722,10.902C127.906,203.046,125.851,203.967,123.658,203.967z"/>
	<path style="fill:#FFFFFF;" d="M143.691,203.967c-3.812,0-4.492-3.548-3.969-6.599c0.621-3.618,2.01-7.103,2.422-10.756
		c0.173-1.523-0.246-3.06-1.044-4.358c-0.188-0.306-1.153-1.393-0.608-1.71c0.536-0.313,1.235-0.421,1.832-0.553
		c2.039-0.449,3.762-0.574,5.828-0.58c0.813-0.002,1.598-0.268,2.022,0.549c0.422,0.809,0.464,1.788,0.464,2.68
		c0,1.51-0.33,3.031-0.649,4.498c-0.742,3.392-2.259,6.99-2.259,10.502c0,0.314-0.118,1.694,0.521,1.49
		c1.119-0.359,3.271-2.015,3.648,0.101c0.229,1.299-1.233,2.073-2.169,2.616C147.894,202.913,145.87,203.967,143.691,203.967z
		 M147.302,174.886c-2.568,0-4.462-1.868-4.179-4.493c0.263-2.425,2.698-4.178,5.038-4.178c2.412,0,4.256,1.579,4.256,4.066
		C152.417,172.883,149.763,174.886,147.302,174.886z"/>
	<path style="fill:#FFFFFF;" d="M160.816,203.967c-1.993,0-4.082-0.321-5.793-1.404c-1.097-0.692-3.33-2.321-2.447-3.88
		c0.87-1.534,2.701-2.984,4.263-3.747c0.925-0.454,1.4,0.204,2.064,0.873c0.793,0.8,1.459,1.719,2.021,2.691
		c0.356,0.62,0.896,2.536,1.59,2.374c0.67-0.158,1.183-0.583,1.293-1.285c0.223-1.423-0.759-2.915-1.533-4.013
		c-2.231-3.159-6.194-5.781-7.064-9.753c-1.845-8.398,16.643-9.211,15.306-1.473c-0.278,1.611-1.403,3.062-2.414,4.289
		c-0.342,0.415-0.962,0.68-0.51,1.145c0.268,0.275,0.549,0.544,0.795,0.84c0.659,0.797,1.21,1.742,1.663,2.668
		c1.95,3.98-0.433,7.799-4.127,9.557C164.33,203.607,162.577,203.967,160.816,203.967z M165.125,182.103
		c-1.256,0-3.268,0.679-2.483,2.265c0.563,1.143,1.613,2.035,2.561,2.854c0.773,0.669,2.223-2.264,2.32-3.004
		C167.731,182.646,166.506,182.103,165.125,182.103z"/>
	<path style="fill:#FFFFFF;" d="M178.051,203.967c-4.785,0-4.692-4.883-4.118-8.354c0.684-4.116,1.803-8.146,2.523-12.255
		c-0.914,0.075-1.835,0.151-2.742,0.304c-0.36,0.06-0.283-1.196-0.288-1.373c-0.006-0.272-0.122-2.501,0.315-2.501
		c0.988,0,1.912-0.501,2.566-1.22c1.039-1.14,1.098-2.409,1.098-3.847c0-0.375-0.323-1.92,0.021-2.133
		c0.548-0.34,1.337-0.448,1.945-0.618c1.245-0.347,2.485-0.78,3.779-0.886c0.342-0.027,2.374-0.273,2.435,0.054
		c0.19,0.965,0.247,1.982,0.213,2.965c-0.067,1.907-0.497,3.822-0.875,5.685c0.813-0.01,5.627,0.317,4.78,2.197
		c-0.103,0.225-0.378,1.247-0.685,1.247c-0.726-0.076-3.512-0.665-4.036-0.107c-1.092,1.167-1.336,3.417-1.616,4.911
		c-0.304,1.627-0.595,3.258-0.866,4.892c-0.256,1.56-0.571,3.156-0.626,4.741c-0.082,2.379,1.591,1.312,3.033,0.677
		c0.873-0.385,1.624-0.685,1.269,0.652c-0.321,1.208-1.381,2.21-2.326,2.955C182.212,203.241,180.141,203.967,178.051,203.967z"/>
</g>
<g>
	<path style="fill:#FFFFFF;" d="M8.141,202.441c-3.815,0-6.525-1.576-7.354-5.463c-0.565-2.655-0.591-5.317-0.591-8.018
		c0-2.638,0.453-6.016,2.543-7.876c2.601-2.312,7.817-2.079,10.156,0.549c0-1.987,0-3.974,0-5.961c0-0.945-0.008-1.933,0.994-2.427
		c0.898-0.44,2.331-0.18,3.291-0.18c1.843,0,2.531,0.927,2.531,2.625c0,1.773,0,3.545,0,5.318c0,5.007,0,10.013,0,15.02
		c0,1.311,0,2.623,0,3.935c0,2.457-3.043,1.904-4.673,1.904c-0.665,0-1.493-0.26-1.752-0.944c-0.26-0.683-0.255-0.877-1.001-0.2
		C11.176,201.729,9.651,202.441,8.141,202.441z M10.006,184.097c-3.318,0-3.005,4.147-2.982,6.449
		c0.017,1.717-0.479,6.317,1.568,7.156c1.156,0.472,3.111,0.535,3.814-0.689c0.794-1.384,0.657-3.597,0.704-5.141
		C13.187,189.442,13.66,184.097,10.006,184.097z"/>
	<path style="fill:#FFFFFF;" d="M30.623,202.441c-2.5,0-4.399-0.996-4.906-3.396c-0.548-2.596-0.641-5.306-0.751-7.947
		c-0.083-1.991-0.128-3.983-0.154-5.975c-0.015-1.175-0.023-2.348-0.027-3.522c-0.001-0.738-0.271-1.414,0.563-1.414
		c1.588,0,6.006-0.796,6.006,1.773c0.412,3.481,0,7.235,0,10.745c0,1.166-0.319,3.049,0.472,4.012
		c0.951,1.155,2.283,1.678,3.717,0.691c1.001-0.689,0.895-1.729,0.946-2.804c0.121-2.548,0.137-5.101,0.157-7.65
		c0.017-2.202,0.023-4.404,0.023-6.606c0-0.338,2.501-0.161,2.738-0.161c1.752,0,4.036-0.304,4.036,2.122c0,1.809,0,3.618,0,5.428
		c0,4.097,0,8.195,0,12.294c0,2.304-3.232,1.975-4.798,1.838c-0.708,0-1.773-0.376-1.773-1.243c0-0.643-0.737,0.098-0.876,0.224
		C34.583,202.134,32.455,202.441,30.623,202.441z"/>
	<path style="fill:#FFFFFF;" d="M54.667,201.981c-1.409,0-4.299,0.121-4.85-1.642c-0.388-1.241-0.423-2.63-0.504-3.916
		c-0.222-3.479-0.249-6.973-0.265-10.458c-0.003-0.86,0.426-1.851-0.584-1.851c-0.717,0-1.375-0.332-1.701-0.994
		c-0.283-0.576-0.254-1.481,0.01-2.056c0.462-1.005,1.589-0.595,2.064-1.473c0.968-1.79-1.05-5.288,2.312-5.288
		c0.933,0,1.931-0.106,2.857,0c1.736,0,1.773,1.687,1.773,2.949c0,0.908-0.258,2.933,1.151,2.933c1.865,0,1.985,3.337,0.391,3.865
		c-1.175,0.39-1.545,0.791-1.549,2.04c-0.005,1.146-0.009,2.293-0.013,3.438c-0.005,1.251-0.01,2.504-0.014,3.756
		c-0.004,1.102-0.338,2.71,0.069,3.696c0.322,0.779,0.937,0.612,1.59,0.803c1.021,0.3,0.863,1.484,0.915,2.33
		C58.459,202.365,56.306,201.96,54.667,201.981z"/>
	<path style="fill:#FFFFFF;" d="M67.931,208.973c-0.518-0.008-1.97,0.215-2.38-0.201c-0.492-0.496-0.428-1.426-0.428-2.069
		c0-0.517-0.041-1.41,0.387-1.796c0.399-0.36,1.444,0,1.931-0.162c0.81-0.272,1.414-0.323,1.308-1.304
		c-0.075-0.706-0.353-1.359-0.57-2.032c-0.148-0.454-0.293-0.911-0.441-1.367c-1.413-4.397-2.825-8.794-4.238-13.189
		c-0.502-1.564-1.005-3.128-1.507-4.692c-0.824-2.562,2.772-1.973,4.256-1.973c2.258,0,2.638,1.604,3.086,3.387
		c0.6,2.386,1.2,4.771,1.799,7.158c0.154,0.613,0.439,3.631,1.111,3.997c-0.023-0.137,0.354-1.066,0.404-1.272
		c0.243-1.003,0.485-2.006,0.729-3.008c0.572-2.363,1.145-4.725,1.717-7.086c0.468-1.932,1.055-3.176,3.339-3.176
		c1.737,0,4.293-0.279,3.519,2.223c-1.293,4.187-2.588,8.374-3.882,12.561c-1.087,3.517-1.913,7.525-3.623,10.81
		C73.089,208.388,70.693,209.013,67.931,208.973z"/>
</g>
<g id="New_Symbol_3_3_">
	<g>
		<path style="fill:#32AB6A;" d="M92.584,123.742c-16.739-0.001-33.07-7.789-43.64-20.762c-1.426-1.75-2.467-3.721-3.604-5.665
			c-1.553-2.656-2.995-5.3-3.755-8.317c-2.104-8.351,0.569-17.499,6.814-23.418c6.251-5.927,15.419-8.13,23.67-5.636
			c7.865,2.377,14.152,8.746,16.365,16.671c1.044,3.74,0.672,7.514,1.249,11.308c0.578,3.795,1.872,7.472,3.82,10.781
			c1.954,3.318,4.551,6.24,7.597,8.596c1.61,1.245,3.34,2.337,5.159,3.248c1.916,0.958,4.402,1.378,5.686,3.241
			c0.989,1.44,1.118,3.355,0.332,4.916c-1.042,2.065-3.151,2.567-5.215,3.122C102.346,123.094,97.467,123.743,92.584,123.742z"/>
		<path style="fill:#32AB6A;" d="M92.584,123.742c-16.739-0.001-33.07-7.789-43.64-20.762c-1.426-1.75-2.467-3.721-3.604-5.665
			c-1.553-2.656-2.995-5.3-3.755-8.317c-2.104-8.351,0.569-17.499,6.814-23.418c6.251-5.927,15.419-8.13,23.67-5.636
			c7.865,2.377,14.152,8.746,16.365,16.671c1.044,3.74,0.672,7.514,1.249,11.308c0.578,3.795,1.872,7.472,3.82,10.781
			c1.954,3.318,4.551,6.24,7.597,8.596c1.61,1.245,3.34,2.337,5.159,3.248c1.916,0.958,4.402,1.378,5.686,3.241
			c0.989,1.44,1.118,3.355,0.332,4.916c-1.042,2.065-3.151,2.567-5.215,3.122C102.346,123.094,97.467,123.743,92.584,123.742z"/>
	</g>
	<g style="opacity:0.1;">
		<linearGradient id="SVGID_1_" gradientUnits="userSpaceOnUse" x1="97.1182" y1="114.2295" x2="52.4224" y2="72.5951">
			<stop  offset="0" style="stop-color:#FFFFFF"/>
			<stop  offset="0.126" style="stop-color:#FBFBFB"/>
			<stop  offset="0.2515" style="stop-color:#EFEFEF"/>
			<stop  offset="0.3771" style="stop-color:#DBDBDB"/>
			<stop  offset="0.5026" style="stop-color:#BFBFBF"/>
			<stop  offset="0.6283" style="stop-color:#9B9B9B"/>
			<stop  offset="0.754" style="stop-color:#6E6E6E"/>
			<stop  offset="0.8773" style="stop-color:#3B3B3B"/>
			<stop  offset="1" style="stop-color:#000000"/>
		</linearGradient>
		<path style="fill:url(#SVGID_1_);" d="M92.584,123.742c-16.739-0.001-33.07-7.789-43.64-20.762
			c-1.426-1.75-2.467-3.721-3.604-5.665c-1.553-2.656-2.995-5.3-3.755-8.317c-2.104-8.351,0.569-17.499,6.814-23.418
			c6.251-5.927,15.419-8.13,23.67-5.636c7.865,2.377,14.152,8.746,16.365,16.671c1.044,3.74,0.672,7.514,1.249,11.308
			c0.578,3.795,1.872,7.472,3.82,10.781c1.954,3.318,4.551,6.24,7.597,8.596c1.61,1.245,3.34,2.337,5.159,3.248
			c1.916,0.958,4.402,1.378,5.686,3.241c0.989,1.44,1.118,3.355,0.332,4.916c-1.042,2.065-3.151,2.567-5.215,3.122
			C102.346,123.094,97.467,123.743,92.584,123.742z"/>
		<linearGradient id="SVGID_2_" gradientUnits="userSpaceOnUse" x1="97.1182" y1="114.2295" x2="52.4224" y2="72.5951">
			<stop  offset="0" style="stop-color:#FFFFFF"/>
			<stop  offset="0.126" style="stop-color:#FBFBFB"/>
			<stop  offset="0.2515" style="stop-color:#EFEFEF"/>
			<stop  offset="0.3771" style="stop-color:#DBDBDB"/>
			<stop  offset="0.5026" style="stop-color:#BFBFBF"/>
			<stop  offset="0.6283" style="stop-color:#9B9B9B"/>
			<stop  offset="0.754" style="stop-color:#6E6E6E"/>
			<stop  offset="0.8773" style="stop-color:#3B3B3B"/>
			<stop  offset="1" style="stop-color:#000000"/>
		</linearGradient>
		<path style="fill:url(#SVGID_2_);" d="M92.584,123.742c-16.739-0.001-33.07-7.789-43.64-20.762
			c-1.426-1.75-2.467-3.721-3.604-5.665c-1.553-2.656-2.995-5.3-3.755-8.317c-2.104-8.351,0.569-17.499,6.814-23.418
			c6.251-5.927,15.419-8.13,23.67-5.636c7.865,2.377,14.152,8.746,16.365,16.671c1.044,3.74,0.672,7.514,1.249,11.308
			c0.578,3.795,1.872,7.472,3.82,10.781c1.954,3.318,4.551,6.24,7.597,8.596c1.61,1.245,3.34,2.337,5.159,3.248
			c1.916,0.958,4.402,1.378,5.686,3.241c0.989,1.44,1.118,3.355,0.332,4.916c-1.042,2.065-3.151,2.567-5.215,3.122
			C102.346,123.094,97.467,123.743,92.584,123.742z"/>
	</g>
</g>
<g id="New_Symbol_3_2_">
	<g>
		<path style="fill:#60C8CC;" d="M119.962,107.354c-8.591,0-16.781-4.751-21.023-12.22c-4.499-7.921-4.135-17.891,0.914-25.468
			c2.194-3.292,5.122-5.778,8.49-7.791c3.337-1.996,6.301-4.606,8.663-7.696c4.936-6.456,7.015-14.802,5.911-22.835
			c-0.276-2.018-0.428-3.848,1.126-5.428c1.526-1.553,3.981-1.888,5.869-0.796c1.724,0.997,3.203,2.854,4.528,4.315
			c1.516,1.671,2.929,3.434,4.23,5.276c5.19,7.351,8.545,15.945,9.785,24.854c1.343,9.645,0.103,19.546-3.555,28.571
			c-0.755,1.887-2.011,3.663-3.003,5.431c-1.354,2.413-2.811,4.694-4.787,6.667C132.592,104.743,126.35,107.354,119.962,107.354z"/>
		<path style="fill:#60C8CC;" d="M119.962,107.354c-8.591,0-16.781-4.751-21.023-12.22c-4.499-7.921-4.135-17.891,0.914-25.468
			c2.194-3.292,5.122-5.778,8.49-7.791c3.337-1.996,6.301-4.606,8.663-7.696c4.936-6.456,7.015-14.802,5.911-22.835
			c-0.276-2.018-0.428-3.848,1.126-5.428c1.526-1.553,3.981-1.888,5.869-0.796c1.724,0.997,3.203,2.854,4.528,4.315
			c1.516,1.671,2.929,3.434,4.23,5.276c5.19,7.351,8.545,15.945,9.785,24.854c1.343,9.645,0.103,19.546-3.555,28.571
			c-0.755,1.887-2.011,3.663-3.003,5.431c-1.354,2.413-2.811,4.694-4.787,6.667C132.592,104.743,126.35,107.354,119.962,107.354z"/>
	</g>
	<g style="opacity:0.1;">
		<linearGradient id="SVGID_3_" gradientUnits="userSpaceOnUse" x1="133.709" y1="42.4531" x2="115.7906" y2="98.128">
			<stop  offset="0" style="stop-color:#FFFFFF"/>
			<stop  offset="0.126" style="stop-color:#FBFBFB"/>
			<stop  offset="0.2515" style="stop-color:#EFEFEF"/>
			<stop  offset="0.3771" style="stop-color:#DBDBDB"/>
			<stop  offset="0.5026" style="stop-color:#BFBFBF"/>
			<stop  offset="0.6283" style="stop-color:#9B9B9B"/>
			<stop  offset="0.754" style="stop-color:#6E6E6E"/>
			<stop  offset="0.8773" style="stop-color:#3B3B3B"/>
			<stop  offset="1" style="stop-color:#000000"/>
		</linearGradient>
		<path style="fill:url(#SVGID_3_);" d="M119.962,107.354c-8.591,0-16.781-4.751-21.023-12.22
			c-4.499-7.921-4.135-17.891,0.914-25.468c2.194-3.292,5.122-5.778,8.49-7.791c3.337-1.996,6.301-4.606,8.663-7.696
			c4.936-6.456,7.015-14.802,5.911-22.835c-0.276-2.018-0.428-3.848,1.126-5.428c1.526-1.553,3.981-1.888,5.869-0.796
			c1.724,0.997,3.203,2.854,4.528,4.315c1.516,1.671,2.929,3.434,4.23,5.276c5.19,7.351,8.545,15.945,9.785,24.854
			c1.343,9.645,0.103,19.546-3.555,28.571c-0.755,1.887-2.011,3.663-3.003,5.431c-1.354,2.413-2.811,4.694-4.787,6.667
			C132.592,104.743,126.35,107.354,119.962,107.354z"/>
		<linearGradient id="SVGID_4_" gradientUnits="userSpaceOnUse" x1="133.709" y1="42.4531" x2="115.7906" y2="98.128">
			<stop  offset="0" style="stop-color:#FFFFFF"/>
			<stop  offset="0.126" style="stop-color:#FBFBFB"/>
			<stop  offset="0.2515" style="stop-color:#EFEFEF"/>
			<stop  offset="0.3771" style="stop-color:#DBDBDB"/>
			<stop  offset="0.5026" style="stop-color:#BFBFBF"/>
			<stop  offset="0.6283" style="stop-color:#9B9B9B"/>
			<stop  offset="0.754" style="stop-color:#6E6E6E"/>
			<stop  offset="0.8773" style="stop-color:#3B3B3B"/>
			<stop  offset="1" style="stop-color:#000000"/>
		</linearGradient>
		<path style="fill:url(#SVGID_4_);" d="M119.962,107.354c-8.591,0-16.781-4.751-21.023-12.22
			c-4.499-7.921-4.135-17.891,0.914-25.468c2.194-3.292,5.122-5.778,8.49-7.791c3.337-1.996,6.301-4.606,8.663-7.696
			c4.936-6.456,7.015-14.802,5.911-22.835c-0.276-2.018-0.428-3.848,1.126-5.428c1.526-1.553,3.981-1.888,5.869-0.796
			c1.724,0.997,3.203,2.854,4.528,4.315c1.516,1.671,2.929,3.434,4.23,5.276c5.19,7.351,8.545,15.945,9.785,24.854
			c1.343,9.645,0.103,19.546-3.555,28.571c-0.755,1.887-2.011,3.663-3.003,5.431c-1.354,2.413-2.811,4.694-4.787,6.667
			C132.592,104.743,126.35,107.354,119.962,107.354z"/>
	</g>
</g>
<g id="New_Symbol_3_1_">
	<g>
		<path style="fill:#F5C647;" d="M42.199,60.841c-1.998,0-3.832-1.276-4.529-3.145c-0.712-1.908,0.068-3.991,0.595-5.852
			c1.027-3.626,2.424-7.146,4.161-10.491c3.418-6.581,8.147-12.464,13.827-17.23c5.698-4.783,12.337-8.428,19.443-10.637
			c3.068-0.955,6.532-1.997,9.767-2.03c2.192-0.022,4.384-0.045,6.577-0.068c14.434-0.15,26.182,12.426,24.571,26.905
			c-1.768,15.905-19.031,25.941-33.735,19.51c-2.988-1.307-5.682-3.04-8.835-4c-3.634-1.107-7.472-1.536-11.26-1.249
			c-3.801,0.288-7.542,1.296-10.976,2.949c-1.674,0.806-3.275,1.766-4.777,2.859C45.496,59.476,44.228,60.841,42.199,60.841z"/>
		<path style="fill:#F5C647;" d="M42.199,60.841c-1.998,0-3.832-1.276-4.529-3.145c-0.712-1.908,0.068-3.991,0.595-5.852
			c1.027-3.626,2.424-7.146,4.161-10.491c3.418-6.581,8.147-12.464,13.827-17.23c5.698-4.783,12.337-8.428,19.443-10.637
			c3.068-0.955,6.532-1.997,9.767-2.03c2.192-0.022,4.384-0.045,6.577-0.068c14.434-0.15,26.182,12.426,24.571,26.905
			c-1.768,15.905-19.031,25.941-33.735,19.51c-2.988-1.307-5.682-3.04-8.835-4c-3.634-1.107-7.472-1.536-11.26-1.249
			c-3.801,0.288-7.542,1.296-10.976,2.949c-1.674,0.806-3.275,1.766-4.777,2.859C45.496,59.476,44.228,60.841,42.199,60.841z"/>
	</g>
	<g style="opacity:0.1;">
		<linearGradient id="SVGID_5_" gradientUnits="userSpaceOnUse" x1="45.603" y1="40.2954" x2="108.9597" y2="33.4829">
			<stop  offset="0" style="stop-color:#FFFFFF"/>
			<stop  offset="0.126" style="stop-color:#FBFBFB"/>
			<stop  offset="0.2515" style="stop-color:#EFEFEF"/>
			<stop  offset="0.3771" style="stop-color:#DBDBDB"/>
			<stop  offset="0.5026" style="stop-color:#BFBFBF"/>
			<stop  offset="0.6283" style="stop-color:#9B9B9B"/>
			<stop  offset="0.754" style="stop-color:#6E6E6E"/>
			<stop  offset="0.8773" style="stop-color:#3B3B3B"/>
			<stop  offset="1" style="stop-color:#000000"/>
		</linearGradient>
		<path style="fill:url(#SVGID_5_);" d="M42.199,60.841c-1.998,0-3.832-1.276-4.529-3.145c-0.712-1.908,0.068-3.991,0.595-5.852
			c1.027-3.626,2.424-7.146,4.161-10.491c3.418-6.581,8.147-12.464,13.827-17.23c5.698-4.783,12.337-8.428,19.443-10.637
			c3.068-0.955,6.532-1.997,9.767-2.03c2.192-0.022,4.384-0.045,6.577-0.068c14.434-0.15,26.182,12.426,24.571,26.905
			c-1.768,15.905-19.031,25.941-33.735,19.51c-2.988-1.307-5.682-3.04-8.835-4c-3.634-1.107-7.472-1.536-11.26-1.249
			c-3.801,0.288-7.542,1.296-10.976,2.949c-1.674,0.806-3.275,1.766-4.777,2.859C45.496,59.476,44.228,60.841,42.199,60.841z"/>
		<linearGradient id="SVGID_6_" gradientUnits="userSpaceOnUse" x1="45.603" y1="40.2954" x2="108.9597" y2="33.4829">
			<stop  offset="0" style="stop-color:#FFFFFF"/>
			<stop  offset="0.126" style="stop-color:#FBFBFB"/>
			<stop  offset="0.2515" style="stop-color:#EFEFEF"/>
			<stop  offset="0.3771" style="stop-color:#DBDBDB"/>
			<stop  offset="0.5026" style="stop-color:#BFBFBF"/>
			<stop  offset="0.6283" style="stop-color:#9B9B9B"/>
			<stop  offset="0.754" style="stop-color:#6E6E6E"/>
			<stop  offset="0.8773" style="stop-color:#3B3B3B"/>
			<stop  offset="1" style="stop-color:#000000"/>
		</linearGradient>
		<path style="fill:url(#SVGID_6_);" d="M42.199,60.841c-1.998,0-3.832-1.276-4.529-3.145c-0.712-1.908,0.068-3.991,0.595-5.852
			c1.027-3.626,2.424-7.146,4.161-10.491c3.418-6.581,8.147-12.464,13.827-17.23c5.698-4.783,12.337-8.428,19.443-10.637
			c3.068-0.955,6.532-1.997,9.767-2.03c2.192-0.022,4.384-0.045,6.577-0.068c14.434-0.15,26.182,12.426,24.571,26.905
			c-1.768,15.905-19.031,25.941-33.735,19.51c-2.988-1.307-5.682-3.04-8.835-4c-3.634-1.107-7.472-1.536-11.26-1.249
			c-3.801,0.288-7.542,1.296-10.976,2.949c-1.674,0.806-3.275,1.766-4.777,2.859C45.496,59.476,44.228,60.841,42.199,60.841z"/>
	</g>
</g>
<g>
	<radialGradient id="SVGID_7_" cx="104.4395" cy="25.7925" r="4.2604" gradientUnits="userSpaceOnUse">
		<stop  offset="0" style="stop-color:#FFFFFF;stop-opacity:0.8"/>
		<stop  offset="1" style="stop-color:#FFFFFF"/>
	</radialGradient>
	<circle style="fill:url(#SVGID_7_);" cx="105.25" cy="27.01" r="2.969"/>
	<radialGradient id="SVGID_8_" cx="127.6074" cy="90.0591" r="4.2604" gradientUnits="userSpaceOnUse">
		<stop  offset="0" style="stop-color:#FFFFFF;stop-opacity:0.8"/>
		<stop  offset="1" style="stop-color:#FFFFFF"/>
	</radialGradient>
	<circle style="fill:url(#SVGID_8_);" cx="128.418" cy="91.276" r="2.968"/>
	<radialGradient id="SVGID_9_" cx="108.6797" cy="78.979" r="4.2597" gradientUnits="userSpaceOnUse">
		<stop  offset="0" style="stop-color:#FFFFFF;stop-opacity:0.8"/>
		<stop  offset="1" style="stop-color:#FFFFFF"/>
	</radialGradient>
	<circle style="fill:url(#SVGID_9_);" cx="109.49" cy="80.196" r="2.968"/>
	<radialGradient id="SVGID_10_" cx="71.4053" cy="70.5" r="4.2602" gradientUnits="userSpaceOnUse">
		<stop  offset="0" style="stop-color:#FFFFFF;stop-opacity:0.8"/>
		<stop  offset="1" style="stop-color:#FFFFFF"/>
	</radialGradient>
	<circle style="fill:url(#SVGID_10_);" cx="72.216" cy="71.717" r="2.969"/>
	<radialGradient id="SVGID_11_" cx="50.917" cy="78.979" r="4.2602" gradientUnits="userSpaceOnUse">
		<stop  offset="0" style="stop-color:#FFFFFF;stop-opacity:0.8"/>
		<stop  offset="1" style="stop-color:#FFFFFF"/>
	</radialGradient>
	<circle style="fill:url(#SVGID_11_);" cx="51.728" cy="80.196" r="2.969"/>
	<radialGradient id="SVGID_12_" cx="96.3311" cy="45.7524" r="4.2597" gradientUnits="userSpaceOnUse">
		<stop  offset="0" style="stop-color:#FFFFFF;stop-opacity:0.8"/>
		<stop  offset="1" style="stop-color:#FFFFFF"/>
	</radialGradient>
	<circle style="fill:url(#SVGID_12_);" cx="97.141" cy="46.97" r="2.968"/>
</g>
<g>
</g>
<g>
</g>
<g>
</g>
<g>
</g>
<g>
</g>
<g>
</g>
<g>
</g>
<g>
</g>
<g>
</g>
<g>
</g>
<g>
</g>
<g>
</g>
<g>
</g>
<g>
</g>
<g>
</g>
<g>
</g>
</svg>
